<?xml version="1.0" encoding="utf-8"?>
<!-- Generator: Adobe Illustrator 24.1.3, SVG Export Plug-In . SVG Version: 6.00 Build 0)  -->
<svg version="1.1" id="Layer_1" xmlns="http://www.w3.org/2000/svg" xmlns:xlink="http://www.w3.org/1999/xlink" x="0px" y="0px"
	 viewBox="0 0 353.6591 172.2988" enable-background="new 0 0 353.6591 172.2988" xml:space="preserve">
<g>
	<g>
		<path d="M154.5459,160.8007c0,5.2364-4.2612,9.4981-9.5009,9.4981c-5.2373,0-9.4986-4.2617-9.4986-9.4981
			c0-5.2402,4.2613-9.5019,9.4986-9.5019c0.0503,0,0.0991,0.0068,0.1494,0.0078c-0.6558-0.6035-1.2886-1.2236-1.8999-1.8603
			c-5.5176,0.8452-9.7486,5.5981-9.7486,11.3525c0,6.3516,5.149,11.5,11.5,11.5c6.3511,0,11.5-5.1484,11.5-11.5
			c0-0.7227-0.0747-1.4277-0.2026-2.1133c-0.8169-0.3701-1.6162-0.7622-2.3975-1.1777
			C154.3272,158.5356,154.5459,159.6416,154.5459,160.8007z"/>
		<path d="M137.5469,160.7988c0,4.1367,3.3628,7.5,7.4981,7.5c4.1357,0,7.5005-3.3633,7.5005-7.5
			c0-2.4614-1.1978-4.6436-3.0352-6.0117c-0.1138-0.0801-0.2246-0.1626-0.3374-0.2437c-1.1851-0.7846-2.603-1.2446-4.1279-1.2446
			C140.9097,153.2988,137.5469,156.664,137.5469,160.7988z"/>
		<path d="M174.545,170.2988c-4.9829,0-9.0728-3.8589-9.4605-8.7427c-0.6836-0.145-1.3589-0.3042-2.0244-0.479
			c0.1489,6.2217,5.2285,11.2217,11.4858,11.2217c6.1709,0,11.1924-4.8643,11.4732-10.9663
			c-0.6665,0.1479-1.3389,0.2851-2.0205,0.4067C183.5254,166.5366,179.4678,170.2988,174.545,170.2988z"/>
		<path d="M174.544,168.2988c3.7065,0,6.7847-2.7012,7.3877-6.2373c-2.356,0.3203-4.793,0.4902-7.3057,0.4902
			c-2.5971,0-5.0859-0.23-7.4853-0.622C167.688,165.5298,170.7935,168.2988,174.544,168.2988z"/>
		<path d="M213.5459,160.8007c0,5.2364-4.2612,9.4981-9.5009,9.4981c-5.2378,0-9.4991-4.2617-9.4991-9.4981
			c0-0.8212,0.1158-1.6142,0.3125-2.375c-0.7221,0.3243-1.4604,0.6285-2.2104,0.917c-0.0606,0.4781-0.1021,0.962-0.1021,1.4561
			c0,6.3516,5.149,11.5,11.5,11.5c6.3511,0,11.5-5.1484,11.5-11.5c0-5.2344-3.5-9.6436-8.2846-11.0356
			c-0.5489,0.5722-1.1162,1.1284-1.7032,1.6679C210.0791,152.1591,213.5459,156.0766,213.5459,160.8007z"/>
		<path d="M204.045,168.2988c4.1357,0,7.5005-3.3633,7.5005-7.5c0-4.1348-3.3648-7.5-7.5005-7.5
			c-0.2476,0-0.4917,0.0137-0.7329,0.0371c-1.7881,1.4033-3.7222,2.6675-5.7891,3.7764c-0.6187,1.0898-0.9761,2.3467-0.9761,3.6865
			C196.5469,164.9355,199.9097,168.2988,204.045,168.2988z"/>
		<g>
			<g>
				<path d="M209.9991,98.6855c-0.4629,3.7022-6.4766,15.2686-11.5664,11.1045c-4.6265-3.7007,1.3877-19.4321,3.7011-22.6709
					c-9.2534,6.0151-10.6401,12.9551-12.9546,23.1333c-7.4018-2.3135-3.7006-7.4023-1.8501-12.9541
					c1.8501-5.5527,1.8501-9.7168-1.3886-15.2681c-6.0142-11.5659-4.6514-24.0361,3.4546-37.5463
					c-12.0288,4.6269-17.334,22.2793-15.0201,32.9199c1.3877,6.9394-2.0937,18.063-7.2285,18.063
					c-2.3134-7.8648,1.2324-8.0489-12.2788-20.0586c5.7046,13.2104,6.7266,23.4521-1.6011,25.6098
					c-8.3276,2.1592-4.3383,14.7857-8.0395,24.501c-3.7007-1.3867-10.6621-15.185-9.2739-18.8867
					c-7.898,12.4897-4.3628,30.6138,7.3413,42.814c0.6113,0.6367,1.2441,1.2568,1.8999,1.8603
					c1.248,1.148,2.5752,2.229,3.9785,3.2368c0.1128,0.0811,0.2236,0.1636,0.3374,0.2437c1.4043,0.9878,2.8848,1.896,4.4355,2.7207
					c0.7813,0.4155,1.5806,0.8076,2.3975,1.1777c2.124,0.9614,4.3604,1.772,6.7168,2.3916c0.6655,0.1748,1.3408,0.334,2.0244,0.479
					c0.6748,0.1436,1.3643,0.2603,2.0562,0.3736c2.3994,0.392,4.8882,0.622,7.4853,0.622c2.5127,0,4.9497-0.1699,7.3057-0.4902
					c0.6958-0.0947,1.3857-0.2007,2.0669-0.3223c0.6816-0.1216,1.354-0.2588,2.0205-0.4067
					c2.3081-0.5117,4.5215-1.1782,6.6289-1.9898c0.75-0.2885,1.4883-0.5927,2.2104-0.917c0.9112-0.4096,1.7984-0.8486,2.6646-1.3134
					c2.0669-1.1089,4.001-2.3731,5.7891-3.7764c0.7763-0.6094,1.5258-1.2441,2.246-1.9048c0.587-0.5395,1.1543-1.0957,1.7032-1.6679
					C218.7159,137.8154,221.5411,118.8398,209.9991,98.6855z M204.834,149.3388c-0.7602,0.731-1.5464,1.4375-2.3735,2.1031
					c-1.9414,1.5615-4.061,2.9404-6.334,4.122c-0.9375,0.4868-1.9062,0.9317-2.8935,1.3506
					c-2.3111,0.9815-4.7476,1.7827-7.2974,2.3736c-0.645,0.1494-1.3032,0.2724-1.9614,0.396
					c-0.6499,0.122-1.3081,0.227-1.9707,0.3232c-2.3907,0.3472-4.8506,0.5444-7.378,0.5444c-2.5674,0-5.0761-0.2378-7.5185-0.6626
					c-0.6597-0.1147-1.3125-0.2451-1.961-0.3896c-0.6543-0.146-1.3076-0.2949-1.9502-0.4707
					c-2.6748-0.732-5.2412-1.7222-7.6718-2.9517c-1.5664-0.7925-3.0777-1.6811-4.5225-2.6689
					c-0.2627-0.1792-0.5142-0.375-0.7725-0.5606c-1.4824-1.0659-2.8911-2.2344-4.2197-3.5
					c-2.9609-2.8213-5.5337-6.1084-7.5879-9.8384c-4.7763-8.6748-5.9399-18.1694-3.4267-26.0854
					c0.6386,1.7773,1.3911,3.3936,1.895,4.4087c0.959,1.9321,4.3447,8.3247,7.6372,9.5586l1.8618,0.6992l0.707-1.8584
					c1.4986-3.9312,1.8189-8.251,2.1041-12.062c0.4858-6.5332,0.9384-10.2739,4.5698-11.2144
					c2.9824-0.7729,5.1216-2.4511,6.3637-4.9873c1.7276-3.5341,1.606-8.5337-0.3867-15.166
					c3.7803,4.0137,4.0489,5.7476,4.4663,8.4492c0.1924,1.25,0.4341,2.8067,1.0152,4.7803l0.4214,1.4365h1.4965
					c1.3389,0,3.3399-0.4961,5.2803-2.8628c3.2925-4.0156,5.0474-11.9087,3.9107-17.5942
					c-1.6206-7.4492,0.8925-19.7505,7.7358-26.6372c-5.1299,11.6465-5.1069,22.5776,0.0933,32.5791
					c2.788,4.7827,3.0962,8.2217,1.2646,13.7134c-0.2954,0.8862-0.6509,1.7876-0.9961,2.6596
					c-1.1987,3.0323-2.4365,6.1675-1.1098,8.9473c0.8496,1.7754,2.5688,3.0483,5.2578,3.8897l2.0669,0.645l0.4814-2.1123
					l0.1592-0.7027c1.414-6.2378,2.4722-10.9087,5.1938-14.875c-1.9321,6.062-2.9863,13.2857,0.7007,16.2349
					c1.0708,0.8765,2.2759,1.3291,3.5635,1.3291c4.1933,0,7.6987-4.8159,9.6372-8.96c6.4795,13.5606,6.6533,27.2637,0.3472,38.1382
					C209.127,144.6308,207.1338,147.1269,204.834,149.3388z"/>
			</g>
		</g>
		<g>
			<path d="M210.1626,108.2168c-2.039,3.0908-5.2255,6.4653-9.414,6.4653c-1.7378,0-3.4072-0.6157-4.8145-1.7666
				c-1.1611-0.9277-1.9546-2.1265-2.4629-3.4966c-0.0766,0.333-0.1528,0.6719-0.2314,1.0166l-0.1592,0.7051l-0.4814,2.1113
				l-0.4815,2.1099l-2.0639-0.6445l-2.0684-0.6451c-3.2461-1.0166-5.3604-2.6303-6.4634-4.936
				c-1.7051-3.5664-0.2397-7.2715,1.0537-10.5464c0.3159-0.7998,0.6734-1.7051,0.9585-2.5561
				c1.6572-4.9693,1.4014-7.7901-1.1426-12.1563c-2.7128-5.2192-4.0952-10.6807-4.1469-16.3481
				c-0.5166,3.3242-0.5064,6.521,0.0537,9.0893c1.2602,6.3023-0.6406,14.7598-4.3267,19.2559
				c-2.4341,2.9692-5.0561,3.5932-6.8252,3.5932h-1.498h-1.5l-0.4195-1.4399l-0.4174-1.4302
				c-0.1075-0.3613-0.2027-0.7085-0.2891-1.0454c-0.2358,1.19-0.5996,2.2852-1.0933,3.2935
				c-1.4878,3.0439-4.1367,5.1328-7.6577,6.0464c-2.0869,0.541-2.5766,2.7168-3.081,9.4531
				c-0.2935,3.9385-0.628,8.4038-2.2251,12.5981l-0.7071,1.8579l-0.7085,1.8614l-1.8637-0.7002l-1.8618-0.6983
				c-3.2832-1.2295-6.2549-5.8603-8.0503-9.2304c-0.4214,6.0068,1.0869,12.4912,4.3989,18.5097
				c2.8179,5.1167,6.6455,9.3736,11.1733,12.6407c0.2676,0.1933,0.5293,0.3955,0.8018,0.5815
				c3.4849,2.3784,7.3677,4.1714,11.5239,5.3164c0.6445,0.1772,1.2988,0.3296,1.9566,0.4756
				c0.6552,0.1455,1.3169,0.2744,1.9843,0.3877c2.2798,0.3877,4.6182,0.6064,7.0118,0.6064c2.3618,0,4.6596-0.1801,6.8955-0.4951
				c0.6753-0.0957,1.3462-0.2002,2.0083-0.3232c0.6665-0.1241,1.332-0.2491,1.9839-0.4009
				c3.3066-0.7686,6.4165-1.8965,9.2807-3.3418c2.457-1.2402,4.7261-2.7202,6.7769-4.4175
				c2.9804-2.4658,5.5024-5.3848,7.4336-8.7168C214.4278,131.5034,214.8057,120.0356,210.1626,108.2168z"/>
		</g>
		<g>
			<path d="M164.2178,68.3178c-0.7378,1.5581-1.5576,3.771-1.0649,5.5743c0.5732,1.9682,2.7866,3.1977,3.8525,4.8374
				c-1.8852-2.7881,1.7217-8.4439,2.5415-11.0674c0.4917-1.7222,1.23-3.2788,0.6558-4.9185
				c-0.6558-1.8037-1.6397-2.9516-2.9512-5.5752c0.8198,1.8858,0,4.9185-0.6562,6.7222
				C165.9395,65.4487,164.8741,66.7602,164.2178,68.3178z"/>
		</g>
		<g>
			<path d="M143.6416,107.6772c0.3467-1.2563-0.2299-2.7988-0.7485-3.8862c-0.4614-1.0855-1.2114-2.001-1.6719-3.0855
				c-0.4624-1.2573-1.0385-3.372-0.4624-4.6865c-0.9218,1.8291-1.6142,2.6284-2.0747,3.8862
				c-0.4033,1.1431,0.1148,2.2286,0.4605,3.4288c0.5771,1.8291,3.1142,5.7724,1.7876,7.7163
				C141.6817,109.9057,143.2388,109.0493,143.6416,107.6772z"/>
		</g>
		<g>
			<path d="M155.3179,91.8247c0.5943-2.1577-0.396-4.8072-1.2861-6.6709c-0.7925-1.8643-2.0796-3.4356-2.8706-5.2984
				c-0.7925-2.1587-1.7827-5.789-0.7925-8.0454c-1.5835,3.1397-2.772,4.5132-3.5635,6.6719
				c-0.6929,1.9619,0.1987,3.8267,0.7915,5.8867c0.9903,3.1392,5.3457,9.9092,3.0689,13.2451
				C151.9522,95.6508,154.625,94.1806,155.3179,91.8247z"/>
		</g>
		<g>
			<path d="M191.1641,73.9355c3.6753,3.4819,7.3496,6.9634,4.4492,12.7656c2.5147-2.4663,2.3208-5.8022,1.9341-8.3169
				c-0.5801-2.1279-1.9341-3.4814-1.7412-5.8032c0.1938-1.5473,1.7412-3.0947,2.3218-4.6421
				c2.5136-6.9629-1.0318-11.8632-5.2237-17.9887c2.2574,6.2544,4.2559,12.1865,0.5811,17.4082
				c-3.6758-1.9341-4.4492-7.1568-3.4819-10.8311C187.1021,62.1367,186.3287,68.9057,191.1641,73.9355z"/>
		</g>
	</g>
	<g>
		<path d="M62.1998,33.2895c4.2919-11.6582-1.6792-24.5898-13.3379-28.8823C37.2041,0.1147,24.2735,6.0864,19.9805,17.7441
			c-4.2925,11.6587,1.6792,24.5903,13.3369,28.8818C44.9756,50.9189,57.9063,44.9477,62.1998,33.2895z"/>
		<path d="M56.6289,102.6967c-2.1318,0-4.2412-0.2104-6.3134-0.5844l-10.0894,7.5605c0.2271-3.4936,0.6314-6.9731,1.209-10.4258
			c-1.1367-0.5429-2.2539-1.1298-3.3301-1.7963c-4.311-2.6558-8.2143-6.2857-11.5927-10.7828
			c-4.773-6.3935-7.1041-12.5341-7.8858-14.8774l-0.0371-0.1064c-1.6655-5.3301,1.2783-10.9498,6.5386-12.5972
			c0.9717-0.3042,1.976-0.4575,2.9848-0.4575c4.397,0,8.2329,2.8213,9.5454,7.0224l0.0713,0.1958
			c0.0943,0.2676,0.2452,0.6699,0.4576,1.1822c0.4038,0.9799,1.0942,2.5068,2.0859,4.2299c1.7803,3.127,4.0195,5.8355,6.3467,7.7427
			c1.9673-9.6167-1.0791-20.2349-9.4439-25.5737c-9.2495-5.9644-23.9419,0.5356-29.2256,15.7846
			c-6.6225,19.1006-9.1518,39.3912-7.4218,59.5333c1.3657,15.9057,13.7392,25.7587,24.1059,22.582
			c1.3208-0.3179,2.6026-0.8653,3.7998-1.6328c1.5083-0.8399,2.8799-1.8667,4.1226-3.0337l12.375-9.2744l-3.7095,20.1455
			c-1.251,6.79,3.2407,13.3066,10.0283,14.5576c0.7647,0.1406,1.5264,0.208,2.2769,0.208c5.915,0,11.1728-4.2139,12.2827-10.2368
			l9.498-51.5816c0.7247-3.9326-0.5039-7.914-3.1425-10.7617c-5.3013,1.9629-10.4707,2.978-15.4326,2.978H56.6289z"/>
		<path d="M120.9454,43.584l5.2036-3.9322c0,0,4.1748-3.477,5.7768-5.5312c1.6031-2.0528,4.5083,2.6924,9.7085-0.0972
			c-3.0224-2.0049-5.0093-4.0518-5.1308-4.8066l6.5849-10.3233c0,0,1.2735-1.8027,2.5176-2.8525
			c1.2432-1.0488,10.2764,1.2729,12.0532-3.3491c-3.8833,0.6792-6.8916-0.3077-8.3886-2.4683
			C147.4473,7.5927,148.125,2.7675,148.8882,0c-6.2236,5.0708-4.7602,9.08-6.2431,10.2124
			c-4.4019,3.3603-12.3711,7.7221-13.7984,7.6635c-1.4277-0.0605-5.9404-0.0127-7.3042-4.5835
			c-4.126,7.1919-1.5136,9.5079-3.4487,12.335c-1.7183,2.5093-7.4741,11.8291-7.8223,15.4829
			c-0.2627,2.7539-1.0102,5.2774-0.9238,6.7959L84.459,74.0634l-1.4492-1.3789l-5.1763,5.44
			c0.6802,0.2178,1.3335,0.5005,1.9473,0.8554c0.583,0.337,1.124,0.7388,1.6289,1.189c0.4971,0.4424,0.9561,0.9297,1.3609,1.4712
			l4.5859-4.8198l-1.4487-1.3784l25.1503-26.4327C113.9659,48.1718,120.4317,44.2822,120.9454,43.584z M112.8208,42.5322
			c0.4942-0.5273,1.2671-0.5908,1.8599-0.2315c0.0869,0.0528,0.1816,0.0875,0.2588,0.1597
			c0.6055,0.5674,0.6367,1.5171,0.0708,2.1221c-0.5674,0.6055-1.5156,0.6348-2.1216,0.0679
			c-0.083-0.0777-0.1284-0.1763-0.1899-0.2666C112.315,43.8178,112.3326,43.0547,112.8208,42.5322z"/>
		<path d="M76.2618,79.7768c-1.7085-0.3237-3.5332-0.1011-5.1929,0.7681c-6.0098,3.1406-10.6963,4.1484-14.3589,4.1504
			c-3.7339-0.0166-6.5747-0.9995-9.1689-2.5737c-0.4956-0.3003-0.9786-0.6299-1.4493-0.9805
			c-3.1967-2.3794-5.8037-5.8106-7.5527-8.8838c-1.0073-1.75-1.7412-3.3486-2.2002-4.4624
			c-0.2305-0.5567-0.3935-0.9912-0.4892-1.2622c-0.0494-0.1367-0.0821-0.2324-0.0982-0.2813l-0.0019-0.0044
			c-1.3194-4.2172-5.8062-6.5688-10.0235-5.2509c-4.2173,1.3193-6.5669,5.8056-5.2495,10.0229
			c0.1797,0.5078,2.2495,7.23,7.6333,14.4468c2.7041,3.5976,6.2832,7.3481,11.0493,10.2847
			c0.8364,0.5185,1.7256,0.9956,2.6382,1.4511c3.1787,1.5855,6.7998,2.7442,10.7632,3.2281
			c1.3227,0.1616,2.6738,0.2666,4.0679,0.2666c0.0273,0,0.0542-0.0005,0.0815-0.0005c4.3452,0.0029,8.9512-0.8111,13.7793-2.4912
			c2.6045-0.9063,5.2705-2.0538,8.001-3.4859c3.9136-2.0498,5.4248-6.8828,3.3769-10.7964
			c-0.1494-0.2851-0.3174-0.5537-0.4946-0.813C80.147,81.3188,78.2881,80.1606,76.2618,79.7768z"/>
	</g>
	<g>
		<path d="M310.8301,75.0849c3.0435-3.8764,4.8745-8.4858,5.1646-9.4189c1.3413-4.2295,5.1709-7.0366,9.5493-7.0366
			c1.0107,0,2.0151,0.1533,2.9849,0.4575c5.2607,1.6474,8.2041,7.2671,6.561,12.5278c-0.4614,1.4248-1.772,5.0952-4.3667,9.6172
			c-4.1563,7.165-9.1167,12.4688-15.1714,16.2188c-1.0757,0.6665-2.1919,1.2524-3.3276,1.7954
			c0.5776,3.4541,0.9824,6.9345,1.2089,10.4301l-10.0927-7.5639c-2.0708,0.374-4.1792,0.5844-6.3101,0.5844h-0.0796
			c-4.9712,0.003-10.1489-1.0122-15.458-2.978c-2.6387,2.8482-3.8672,6.8291-3.1426,10.7617l9.5,51.5816
			c1.108,6.0229,6.3663,10.2368,12.2803,10.2368c0.751,0,1.5117-0.0674,2.2769-0.208c6.7881-1.251,11.2798-7.7676,10.0288-14.5576
			l-3.71-20.1455l12.3799,9.2778c1.2432,1.167,2.6152,2.1934,4.1245,3.0327c1.1943,0.7656,2.4732,1.3115,3.7905,1.6294
			c10.3672,3.1802,22.7442-6.6733,24.1099-22.581c1.7295-20.1421-0.7998-40.4327-7.4219-59.5333
			c-5.2842-15.249-19.9765-21.749-29.2256-15.7846c-8.3657,5.3398-11.4116,15.9599-9.4428,25.5771
			C308.3667,77.9233,309.6509,76.6006,310.8301,75.0849z"/>
		<path d="M320.3418,46.6259c11.6573-4.2915,17.6289-17.2231,13.337-28.8818c-4.293-11.6577-17.2237-17.6294-28.8814-13.3369
			c-11.6587,4.2925-17.6299,17.2241-13.3379,28.8823C295.753,44.9477,308.6836,50.9189,320.3418,46.6259z"/>
		<path d="M272.2496,80.1689c0.5058-0.4492,1.0463-0.8515,1.6298-1.1885c0.6133-0.3545,1.2666-0.6372,1.9468-0.8549l-5.1767-5.441
			l-1.4493,1.3789L245.898,49.5732l0.7275-1.147c0.3506-0.5517,0.2788-1.2246-0.1591-1.5019l-4.0743-2.584
			c0.8203-1.27,1.5791-2.5127,2.187-3.6274c0.5879-0.7491,1.1915-1.4869,1.8111-2.211c0.3388-0.3945,0.4209-0.8867,0.1762-1.1035
			c-0.187-0.165-0.3745-0.3291-0.561-0.4936c-0.0166-0.1958-0.0766-0.3487-0.1865-0.4512
			c-1.8628-1.7368-6.2456,1.4746-7.5596,2.1841c-0.5044,0.2724-1.0273,0.7339-1.5415,1.2876l-4.4048-4.6294
			c0.5215-1.3111,0.7959-3.1343,0.9727-4.6475c0.2236-1.918-0.5059-4.2866-1.2969-5.981c-0.791-1.6938-2.9429-4.5576-2.9429-4.5576
			c-0.4692-0.2881-0.873-0.1684-1.1699,0.0479c-0.3262,0.022-0.6513,0.0434-0.9775,0.0654
			c-0.3257,0.0235-0.5606,0.4629-0.5318,0.9829c0.0865,1.624,0.1133,3.2481,0.0821,4.8706
			c-0.1065,0.7012-0.2144,1.4434-0.3199,2.209l-0.5312-0.0474l-8.9194-9.3745l-0.396-1.9194
			c1.5893-0.314,3.1113-0.6553,4.4218-1.0166c1.0157-0.1055,2.0332-0.1899,3.0528-0.2524c0.5561-0.0323,0.9961-0.3355,0.9804-0.6856
			c-0.0122-0.2671-0.0249-0.5337-0.0371-0.7998c0.1382-0.1587,0.2115-0.3193,0.2085-0.4795
			c-0.0493-2.7285-5.7866-3.7124-7.3125-4.1968c-1.5258-0.4834-4.1323-0.1167-6.1679,0.2461
			c-2.0362,0.3633-4.2403,1.8443-5.7339,3.1797c-1.4932,1.335-3.7656,4.4278-3.7656,4.4278
			c-0.1504,0.5703,0.0971,0.9472,0.4106,1.185c0.123,0.3281,0.2466,0.6548,0.3696,0.9824c0.1245,0.3272,0.648,0.4322,1.1724,0.2417
			c1.6392-0.5913,3.2969-1.1201,4.9707-1.5898c0.7524-0.1079,1.5469-0.2266,2.3652-0.355l1.0752,5.2139
			c0.1118,0.5434,0.7588,0.8701,1.4444,0.7285l2.5507-0.5264c0.5098-0.1045,0.8946-0.4389,1.0142-0.8266l5.2783,5.5473
			l-1.4004-0.1255c-0.5156-0.0468-0.9819,0.4434-1.04,1.0943l-0.2168,2.4214c-0.0591,0.6513,0.313,1.2163,0.8296,1.2622
			l4.8052,0.4306c-0.1475,1.5049-0.2525,2.9571-0.2823,4.2261c-0.1797,0.9356-0.3779,1.8677-0.5971,2.7954
			c-0.1206,0.5059,0.0322,0.981,0.3491,1.0615c0.2417,0.0611,0.4834,0.1211,0.7246,0.1817c0.1045,0.1665,0.228,0.2749,0.3726,0.3154
			c2.0385,0.5747,4.0556-2.6865,5.163-4.5117l4.1553,4.3667c-0.3628,0.4888-0.7085,0.9849-1.021,1.4497
			c-1.0771,1.6025-1.5141,4.042-1.5869,5.9106c-0.0727,1.8682,0.5278,5.3995,0.5278,5.3995
			c0.2852,0.4712,0.6993,0.5498,1.062,0.4931c0.2999,0.1299,0.5992,0.2598,0.899,0.3897c0.3003,0.1284,0.7104-0.1543,0.9228-0.6299
			c0.667-1.4834,1.3872-2.939,2.1582-4.3672c0.416-0.5742,0.8521-1.1846,1.2964-1.8169l4.1963,2.6607
			c0.1909,0.121,0.4204,0.1318,0.6475,0.0766l23.2065,24.3897l-1.4487,1.3784l4.5854,4.8188
			C271.293,81.0986,271.7525,80.6113,272.2496,80.1689z"/>
		<path d="M277.3975,79.7763c-2.0269,0.3838-3.8862,1.5425-5.1108,3.3326c-0.1773,0.2587-0.3453,0.5268-0.4942,0.8115
			c-2.0498,3.9136-0.5386,8.7485,3.375,10.7983c2.73,1.4321,5.396,2.5796,8.001,3.4863c4.8276,1.6797,9.4346,2.4937,13.7793,2.4908
			c0.0269,0,0.0547,0.0005,0.0815,0.0005c1.3936,0,2.7437-0.105,4.066-0.2662c3.9648-0.4838,7.5859-1.643,10.7661-3.2294
			c0.9121-0.4551,1.8008-0.9322,2.6372-1.4502c7.1479-4.4273,11.6303-10.5821,14.4897-15.5152
			c2.8467-4.9599,4.0684-8.8345,4.1929-9.2163c1.3174-4.2173-1.0322-8.7036-5.2495-10.0229
			c-4.207-1.3145-8.6826,1.0224-10.0117,5.2212l-0.0015-0.0005c0,0,0,0-0.0083,0.0283v0.001c0,0,0.0005-0.0005,0.0005-0.001h0.0005
			c-0.0005,0.001-0.0005,0.0015-0.0005,0.0015l-0.0005-0.0005c-0.1406,0.4663-1.9697,5.5703-5.502,10.0673
			c-1.3911,1.7891-3.0214,3.4639-4.8427,4.8213c-0.5474,0.4077-1.1104,0.7896-1.6914,1.1338
			c-2.5347,1.4864-5.3086,2.4126-8.9263,2.4287c-3.6646-0.0039-8.3491-1.0117-14.3569-4.1523
			C280.9307,79.6757,279.1065,79.4531,277.3975,79.7763z"/>
	</g>
</g>
</svg>
